<svg xmlns="http://www.w3.org/2000/svg" viewBox="0 0 800 1000" width="800" height="1000"><defs><linearGradient id="g" x1="0" x2="1"><stop offset="0" stop-color="#414148"/><stop offset=".5" stop-color="#2b2b32"/><stop offset="1" stop-color="#0f0f16"/></linearGradient></defs><path d="M212 150 L120 650 L190 674 L262 300 Z" fill="#0f0f16"/><path d="M588 150 L680 650 L610 674 L538 300 Z" fill="#0f0f16"/><path d="M300 118 Q400 170 500 118 L588 150 L624 880 Q400 902 176 880 L212 150 Z" fill="url(#g)" stroke="#67676e" stroke-opacity=".55" stroke-width="3"/><path d="M300 118 L350 190 L400 150 L450 190 L500 118 L470 104 L400 135 L330 104Z" fill="#414148" stroke="#0f0f16" stroke-width="3"/><path d="M400 170 V898" stroke="#0f0f16" stroke-width="4"/><circle cx="372" cy="230" r="9" fill="#0f0f16"/><circle cx="428" cy="230" r="9" fill="#0f0f16"/><circle cx="372" cy="308" r="9" fill="#0f0f16"/><circle cx="428" cy="308" r="9" fill="#0f0f16"/><circle cx="372" cy="386" r="9" fill="#0f0f16"/><circle cx="428" cy="386" r="9" fill="#0f0f16"/><circle cx="372" cy="464" r="9" fill="#0f0f16"/><circle cx="428" cy="464" r="9" fill="#0f0f16"/><circle cx="372" cy="542" r="9" fill="#0f0f16"/><circle cx="428" cy="542" r="9" fill="#0f0f16"/><circle cx="372" cy="620" r="9" fill="#0f0f16"/><circle cx="428" cy="620" r="9" fill="#0f0f16"/><circle cx="372" cy="698" r="9" fill="#0f0f16"/><circle cx="428" cy="698" r="9" fill="#0f0f16"/><circle cx="372" cy="776" r="9" fill="#0f0f16"/><circle cx="428" cy="776" r="9" fill="#0f0f16"/><circle cx="372" cy="854" r="9" fill="#0f0f16"/><circle cx="428" cy="854" r="9" fill="#0f0f16"/><path d="M260 730 h90 v70 h-90Z M450 730 h90 v70 h-90Z" fill="none" stroke="#0f0f16" stroke-width="4"/></svg>